# xmcd
#
# Track frame offsets:
#	150
#	13140
#	24527
#	36788
#	49521
#	62100
#	74608
#	88150
#	101483
#	114737
#	126943
#	139051
#	152194
#	165572
#	176426
#	188777
#	203140
#	216010
#	225934
#	237858
#	251444
#	264211
#	277444
#	287648
#	300652
#
# Disc length: 4179 seconds
#
# Revision: 1
# Processed by: cddbd v1.5.2PL0 Copyright (c) Steve Scherf et al.
# Submitted via: audiograbber 1.83.01
#
DISCID=67105119
DTITLE=Various Artist - Your Cheatin' Heart CD3
DYEAR=1900
DGENRE=Country
TTITLE0=Jimmy Wakely - My Heart Cries for You
TTITLE1=Ferlin Husky - A Dear John Letter
TTITLE2=Hank WIlliams - Lovesick Blues
TTITLE3=Carl Smith - Let Old Mother Nature Have Her Way
TTITLE4=Hank Snow - Rhumba Boogie
TTITLE5=Gene Autry - Have I Told You Lately That I Love You
TTITLE6=Pee Wee King - Slow Poke
TTITLE7=Stuart Hambeln - This Old House
TTITLE8=Lefty Frizzell - If You've Got the Money, I've Got the Time
TTITLE9=Al Dexter - Guitar Polka
TTITLE10=Ted Daffan - Born to Lose
TTITLE11=Little Jimmy Dickens - Hillbilly Fever
TTITLE12=Merle Travis - So Round, So Firm, So Fully Packed
TTITLE13=Webb Pierce - There Stands the Glass
TTITLE14=Elton Britt - There's a Star Spangled Banner Waving Somewhere
TTITLE15=Red Foley - (There'll Be) Peace in the Valley (For Me)
TTITLE16=Roy Acuff - Wabash Cannonball
TTITLE17=Jimmy Wakely - Slipping Around
TTITLE18=Jim Reeves - Mexican Joe
TTITLE19=Tennessee Ernie Ford - Mule Train
TTITLE20=Tex Williams - Smoke, Smoke, Smoke That Cigarette
TTITLE21=Tex Ritter - Jealous Heart
TTITLE22=Hank Locklin - Let Me Be the One
TTITLE23=Hank WIlliams - Jambalaya (On the Bayou)
TTITLE24=Eddy Arnold - Anytime
EXTD=
EXTT0=
EXTT1=
EXTT2=
EXTT3=
EXTT4=
EXTT5=
EXTT6=
EXTT7=
EXTT8=
EXTT9=
EXTT10=
EXTT11=
EXTT12=
EXTT13=
EXTT14=
EXTT15=
EXTT16=
EXTT17=
EXTT18=
EXTT19=
EXTT20=
EXTT21=
EXTT22=
EXTT23=
EXTT24=
PLAYORDER=
